<?xml version="1.0" encoding="iso-8859-1"?>
<!-- Generator: Adobe Illustrator 19.0.0, SVG Export Plug-In . SVG Version: 6.00 Build 0)  -->
<svg xmlns="http://www.w3.org/2000/svg" xmlns:xlink="http://www.w3.org/1999/xlink" version="1.1" id="Layer_1" x="0px" y="0px" viewBox="0 0 512 512" style="enable-background:new 0 0 512 512;" xml:space="preserve" width="512px" height="512px">
<g>
	<g>
		<path d="M449.306,193.306c-34.569,0-62.694,28.125-62.694,62.694c0,34.569,28.125,62.694,62.694,62.694    C483.875,318.694,512,290.569,512,256C512,221.431,483.875,193.306,449.306,193.306z M449.306,297.796    c-23.046,0-41.796-18.75-41.796-41.796s18.75-41.796,41.796-41.796c23.046,0,41.796,18.75,41.796,41.796    S472.352,297.796,449.306,297.796z" fill="#FFFFFF"/>
	</g>
</g>
<g>
	<g>
		<path d="M62.694,193.306C28.125,193.306,0,221.431,0,256c0,34.569,28.125,62.694,62.694,62.694    c34.569,0,62.694-28.125,62.694-62.694C125.388,221.431,97.263,193.306,62.694,193.306z M62.694,297.796    c-23.046,0-41.796-18.75-41.796-41.796s18.75-41.796,41.796-41.796c23.046,0,41.796,18.75,41.796,41.796    S85.74,297.796,62.694,297.796z" fill="#FFFFFF"/>
	</g>
</g>
<g>
	<g>
		<path d="M437.019,74.981c-24.446-24.444-64.217-24.444-88.663,0c-11.841,11.842-18.362,27.586-18.362,44.332    c0,16.746,6.522,32.49,18.362,44.332c11.842,11.841,27.585,18.362,44.332,18.362c16.746,0,32.49-6.522,44.332-18.362    C461.463,139.199,461.463,99.426,437.019,74.981z M422.241,148.866c-16.296,16.296-42.811,16.296-59.107,0    c-16.297-16.296-16.297-42.811,0-59.107c8.148-8.148,18.851-12.223,29.554-12.223s21.406,4.075,29.554,12.223    C438.539,106.055,438.539,132.57,422.241,148.866z" fill="#FFFFFF"/>
	</g>
</g>
<g>
	<g>
		<path d="M437.019,348.356c-11.842-11.841-27.586-18.362-44.332-18.362c-16.746,0-32.49,6.522-44.332,18.362    c-11.841,11.842-18.362,27.586-18.362,44.333c0,16.746,6.522,32.49,18.364,44.332c12.222,12.221,28.275,18.332,44.33,18.332    c16.055,0,32.108-6.111,44.332-18.332C461.463,412.575,461.463,372.801,437.019,348.356z M422.242,422.242    c-16.296,16.297-42.813,16.295-59.108,0c-16.297-16.296-16.297-42.813,0-59.108c8.148-8.148,18.851-12.223,29.554-12.223    s21.406,4.075,29.554,12.223C438.538,379.43,438.538,405.946,422.242,422.242z" fill="#FFFFFF"/>
	</g>
</g>
<g>
	<g>
		<path d="M256,386.612c-34.569,0-62.694,28.125-62.694,62.694C193.306,483.875,221.431,512,256,512    c34.569,0,62.694-28.125,62.694-62.694C318.694,414.737,290.569,386.612,256,386.612z M256,491.102    c-23.046,0-41.796-18.75-41.796-41.796c0-23.046,18.75-41.796,41.796-41.796s41.796,18.75,41.796,41.796    C297.796,472.352,279.046,491.102,256,491.102z" fill="#FFFFFF"/>
	</g>
</g>
<g>
	<g>
		<path d="M163.644,74.981c-24.446-24.444-64.218-24.445-88.664,0.001c-24.443,24.444-24.443,64.217,0,88.661v0.001    c11.842,11.841,27.586,18.362,44.332,18.362c16.747,0,32.491-6.522,44.333-18.362c11.841-11.842,18.362-27.586,18.362-44.332    C182.006,102.566,175.485,86.823,163.644,74.981z M148.866,148.866c-16.295,16.299-42.811,16.299-59.108,0v0.001    c-16.296-16.297-16.296-42.813,0-59.108c16.297-16.3,42.814-16.297,59.108,0C165.163,106.055,165.163,132.57,148.866,148.866z" fill="#FFFFFF"/>
	</g>
</g>
<g>
	<g>
		<path d="M256,0c-34.569,0-62.694,28.125-62.694,62.694c0,34.569,28.125,62.694,62.694,62.694    c34.569,0,62.694-28.125,62.694-62.694C318.694,28.125,290.569,0,256,0z M256,104.49c-23.046,0-41.796-18.75-41.796-41.796    c0-23.046,18.75-41.796,41.796-41.796s41.796,18.75,41.796,41.796C297.796,85.74,279.046,104.49,256,104.49z" fill="#FFFFFF"/>
	</g>
</g>
<g>
	<g>
		<path d="M163.644,348.356c-11.842-11.841-27.585-18.362-44.333-18.362c-16.746,0-32.49,6.522-44.332,18.364    c-24.443,24.444-24.443,64.218,0.001,88.663c12.222,12.221,28.277,18.332,44.332,18.332c16.054,0,32.108-6.111,44.33-18.332h0.001    c11.841-11.842,18.362-27.586,18.362-44.332C182.006,375.941,175.485,360.198,163.644,348.356z M148.867,422.242    c-16.299,16.295-42.814,16.293-59.11,0.001c-16.296-16.297-16.296-42.814,0-59.11c8.148-8.149,18.851-12.223,29.554-12.223    c10.704,0,21.407,4.074,29.555,12.223C165.163,379.43,165.163,405.946,148.867,422.242z" fill="#FFFFFF"/>
	</g>
</g>
<g>
</g>
<g>
</g>
<g>
</g>
<g>
</g>
<g>
</g>
<g>
</g>
<g>
</g>
<g>
</g>
<g>
</g>
<g>
</g>
<g>
</g>
<g>
</g>
<g>
</g>
<g>
</g>
<g>
</g>
</svg>
